<mxfile host="app.diagrams.net" agent="Mozilla/5.0 (Windows NT 10.0; Win64; x64; rv:143.0) Gecko/20100101 Firefox/143.0" version="28.2.2">
  <diagram name="PÃ¡gina-1" id="Q4v2XUulE-g4uzLJDbDY">
    <mxGraphModel dx="1209" dy="1125" grid="1" gridSize="10" guides="1" tooltips="1" connect="1" arrows="1" fold="1" page="1" pageScale="1" pageWidth="827" pageHeight="1169" math="0" shadow="0">
      <root>
        <mxCell id="0" />
        <mxCell id="1" parent="0" />
        <mxCell id="7BKBs26bFtrJ278Ogw7V-37" value="" style="edgeStyle=orthogonalEdgeStyle;rounded=0;orthogonalLoop=1;jettySize=auto;html=1;" edge="1" parent="1" source="7BKBs26bFtrJ278Ogw7V-1" target="7BKBs26bFtrJ278Ogw7V-13">
          <mxGeometry relative="1" as="geometry" />
        </mxCell>
        <mxCell id="7BKBs26bFtrJ278Ogw7V-1" value="arquivo banco" style="whiteSpace=wrap;html=1;shape=mxgraph.basic.document" vertex="1" parent="1">
          <mxGeometry x="145" y="520.5" width="75" height="90" as="geometry" />
        </mxCell>
        <mxCell id="7BKBs26bFtrJ278Ogw7V-6" value="" style="edgeStyle=orthogonalEdgeStyle;rounded=0;orthogonalLoop=1;jettySize=auto;html=1;" edge="1" parent="1">
          <mxGeometry relative="1" as="geometry">
            <mxPoint x="456" y="555" as="sourcePoint" />
            <mxPoint x="456" y="555" as="targetPoint" />
            <Array as="points">
              <mxPoint x="640" y="555" />
              <mxPoint x="640" y="555" />
            </Array>
          </mxGeometry>
        </mxCell>
        <mxCell id="7BKBs26bFtrJ278Ogw7V-2" value="" style="sketch=0;pointerEvents=1;shadow=0;dashed=0;html=1;strokeColor=none;labelPosition=center;verticalLabelPosition=bottom;verticalAlign=top;align=center;fillColor=#515151;shape=mxgraph.mscae.enterprise.database_server" vertex="1" parent="1">
          <mxGeometry x="418" y="528.5" width="38" height="50" as="geometry" />
        </mxCell>
        <mxCell id="7BKBs26bFtrJ278Ogw7V-3" value="Payment" style="html=1;whiteSpace=wrap;strokeColor=none;fillColor=#0079D6;labelPosition=center;verticalLabelPosition=middle;verticalAlign=top;align=center;fontSize=12;outlineConnect=0;spacingTop=-6;fontColor=#FFFFFF;sketch=0;shape=mxgraph.sitemap.payment;" vertex="1" parent="1">
          <mxGeometry x="630" y="530.5" width="120" height="80" as="geometry" />
        </mxCell>
        <mxCell id="7BKBs26bFtrJ278Ogw7V-4" value="" style="image;aspect=fixed;perimeter=ellipsePerimeter;html=1;align=center;shadow=0;dashed=0;spacingTop=3;image=img/lib/active_directory/user_accounts.svg;" vertex="1" parent="1">
          <mxGeometry x="662" y="480" width="50" height="48.5" as="geometry" />
        </mxCell>
        <mxCell id="7BKBs26bFtrJ278Ogw7V-35" style="edgeStyle=orthogonalEdgeStyle;rounded=0;orthogonalLoop=1;jettySize=auto;html=1;" edge="1" parent="1" source="7BKBs26bFtrJ278Ogw7V-5">
          <mxGeometry relative="1" as="geometry">
            <mxPoint x="230" y="555.5" as="targetPoint" />
          </mxGeometry>
        </mxCell>
        <mxCell id="7BKBs26bFtrJ278Ogw7V-5" value="sistema java spring batch" style="sketch=0;pointerEvents=1;shadow=0;dashed=0;html=1;strokeColor=none;labelPosition=center;verticalLabelPosition=bottom;verticalAlign=top;align=center;fillColor=#515151;shape=mxgraph.mscae.enterprise.database_server" vertex="1" parent="1">
          <mxGeometry x="418" y="530.5" width="38" height="50" as="geometry" />
        </mxCell>
        <mxCell id="7BKBs26bFtrJ278Ogw7V-7" value="EXPORTDO ARQUIVO POSICIONAL" style="text;html=1;align=center;verticalAlign=middle;resizable=0;points=[];autosize=1;strokeColor=none;fillColor=none;" vertex="1" parent="1">
          <mxGeometry x="120" y="489.25" width="230" height="30" as="geometry" />
        </mxCell>
        <mxCell id="7BKBs26bFtrJ278Ogw7V-40" style="edgeStyle=orthogonalEdgeStyle;rounded=0;orthogonalLoop=1;jettySize=auto;html=1;" edge="1" parent="1" source="7BKBs26bFtrJ278Ogw7V-13" target="7BKBs26bFtrJ278Ogw7V-17">
          <mxGeometry relative="1" as="geometry" />
        </mxCell>
        <mxCell id="7BKBs26bFtrJ278Ogw7V-13" value="AWS CLI" style="outlineConnect=0;dashed=0;verticalLabelPosition=bottom;verticalAlign=top;align=center;html=1;shape=mxgraph.aws3.cli;fillColor=#444444;gradientColor=none;" vertex="1" parent="1">
          <mxGeometry x="146.5" y="770" width="73.5" height="82.5" as="geometry" />
        </mxCell>
        <mxCell id="7BKBs26bFtrJ278Ogw7V-27" style="edgeStyle=orthogonalEdgeStyle;rounded=0;orthogonalLoop=1;jettySize=auto;html=1;" edge="1" parent="1" source="7BKBs26bFtrJ278Ogw7V-17" target="7BKBs26bFtrJ278Ogw7V-20">
          <mxGeometry relative="1" as="geometry">
            <Array as="points">
              <mxPoint x="159" y="1240" />
              <mxPoint x="160" y="1240" />
              <mxPoint x="160" y="1280" />
            </Array>
          </mxGeometry>
        </mxCell>
        <mxCell id="7BKBs26bFtrJ278Ogw7V-17" value="ENTRADA" style="sketch=0;outlineConnect=0;fontColor=#232F3E;gradientColor=none;fillColor=#232F3D;strokeColor=none;dashed=0;verticalLabelPosition=bottom;verticalAlign=top;align=center;html=1;fontSize=12;fontStyle=0;aspect=fixed;pointerEvents=1;shape=mxgraph.aws4.folder;" vertex="1" parent="1">
          <mxGeometry x="148.25" y="1066.28" width="70" height="63.72" as="geometry" />
        </mxCell>
        <mxCell id="7BKBs26bFtrJ278Ogw7V-18" value="&lt;div&gt;PROCESSADO&lt;/div&gt;&lt;div&gt;MOVA ARQUIVO&lt;/div&gt;" style="sketch=0;outlineConnect=0;fontColor=#232F3E;gradientColor=none;fillColor=#232F3D;strokeColor=none;dashed=0;verticalLabelPosition=bottom;verticalAlign=top;align=center;html=1;fontSize=12;fontStyle=0;aspect=fixed;pointerEvents=1;shape=mxgraph.aws4.folder;" vertex="1" parent="1">
          <mxGeometry x="335" y="1059" width="78" height="71" as="geometry" />
        </mxCell>
        <mxCell id="7BKBs26bFtrJ278Ogw7V-28" style="edgeStyle=orthogonalEdgeStyle;rounded=0;orthogonalLoop=1;jettySize=auto;html=1;" edge="1" parent="1" source="7BKBs26bFtrJ278Ogw7V-20" target="7BKBs26bFtrJ278Ogw7V-18">
          <mxGeometry relative="1" as="geometry">
            <Array as="points">
              <mxPoint x="345" y="1280" />
            </Array>
          </mxGeometry>
        </mxCell>
        <mxCell id="7BKBs26bFtrJ278Ogw7V-29" style="edgeStyle=orthogonalEdgeStyle;rounded=0;orthogonalLoop=1;jettySize=auto;html=1;" edge="1" parent="1" source="7BKBs26bFtrJ278Ogw7V-20" target="7BKBs26bFtrJ278Ogw7V-21">
          <mxGeometry relative="1" as="geometry" />
        </mxCell>
        <mxCell id="7BKBs26bFtrJ278Ogw7V-20" value="LAMBDA NODEJS" style="outlineConnect=0;dashed=0;verticalLabelPosition=bottom;verticalAlign=top;align=center;html=1;shape=mxgraph.aws3.lambda_function;fillColor=#F58534;gradientColor=none;" vertex="1" parent="1">
          <mxGeometry x="230" y="1240" width="69" height="72" as="geometry" />
        </mxCell>
        <mxCell id="7BKBs26bFtrJ278Ogw7V-30" style="edgeStyle=orthogonalEdgeStyle;rounded=0;orthogonalLoop=1;jettySize=auto;html=1;" edge="1" parent="1" source="7BKBs26bFtrJ278Ogw7V-21">
          <mxGeometry relative="1" as="geometry">
            <mxPoint x="450" y="1456.5" as="targetPoint" />
          </mxGeometry>
        </mxCell>
        <mxCell id="7BKBs26bFtrJ278Ogw7V-32" style="edgeStyle=orthogonalEdgeStyle;rounded=0;orthogonalLoop=1;jettySize=auto;html=1;" edge="1" parent="1" source="7BKBs26bFtrJ278Ogw7V-21" target="7BKBs26bFtrJ278Ogw7V-31">
          <mxGeometry relative="1" as="geometry">
            <mxPoint x="230.5" y="1590" as="targetPoint" />
          </mxGeometry>
        </mxCell>
        <mxCell id="7BKBs26bFtrJ278Ogw7V-21" value="SQS" style="outlineConnect=0;dashed=0;verticalLabelPosition=bottom;verticalAlign=top;align=center;html=1;shape=mxgraph.aws3.sqs;fillColor=#D9A741;gradientColor=none;" vertex="1" parent="1">
          <mxGeometry x="160" y="1537" width="76.5" height="93" as="geometry" />
        </mxCell>
        <mxCell id="7BKBs26bFtrJ278Ogw7V-22" style="edgeStyle=orthogonalEdgeStyle;rounded=0;orthogonalLoop=1;jettySize=auto;html=1;exitX=0.5;exitY=1;exitDx=0;exitDy=0;exitPerimeter=0;" edge="1" parent="1" source="7BKBs26bFtrJ278Ogw7V-20" target="7BKBs26bFtrJ278Ogw7V-20">
          <mxGeometry relative="1" as="geometry" />
        </mxCell>
        <mxCell id="7BKBs26bFtrJ278Ogw7V-23" value="DYNAMO D6" style="outlineConnect=0;dashed=0;verticalLabelPosition=bottom;verticalAlign=top;align=center;html=1;shape=mxgraph.aws3.dynamo_db;fillColor=#2E73B8;gradientColor=none;" vertex="1" parent="1">
          <mxGeometry x="456" y="1400" width="72" height="81" as="geometry" />
        </mxCell>
        <mxCell id="7BKBs26bFtrJ278Ogw7V-24" value="" style="sketch=0;outlineConnect=0;fontColor=#232F3E;gradientColor=none;fillColor=#7AA116;strokeColor=none;dashed=0;verticalLabelPosition=bottom;verticalAlign=top;align=center;html=1;fontSize=12;fontStyle=0;aspect=fixed;pointerEvents=1;shape=mxgraph.aws4.bucket;" vertex="1" parent="1">
          <mxGeometry x="480" y="1066.28" width="75" height="78" as="geometry" />
        </mxCell>
        <mxCell id="7BKBs26bFtrJ278Ogw7V-31" value="" style="outlineConnect=0;dashed=0;verticalLabelPosition=bottom;verticalAlign=top;align=center;html=1;shape=mxgraph.aws3.lambda_function;fillColor=#F58534;gradientColor=none;" vertex="1" parent="1">
          <mxGeometry x="200.5" y="1754" width="69" height="72" as="geometry" />
        </mxCell>
        <mxCell id="7BKBs26bFtrJ278Ogw7V-34" value="AWS Cloud" style="sketch=0;outlineConnect=0;gradientColor=none;html=1;whiteSpace=wrap;fontSize=12;fontStyle=0;shape=mxgraph.aws4.group;grIcon=mxgraph.aws4.group_aws_cloud;strokeColor=#AAB7B8;fillColor=none;verticalAlign=top;align=left;spacingLeft=30;fontColor=#AAB7B8;dashed=0;" vertex="1" parent="1">
          <mxGeometry x="55" y="930" width="615" height="430" as="geometry" />
        </mxCell>
        <mxCell id="7BKBs26bFtrJ278Ogw7V-39" style="edgeStyle=orthogonalEdgeStyle;rounded=0;orthogonalLoop=1;jettySize=auto;html=1;exitX=0.5;exitY=1;exitDx=0;exitDy=0;exitPerimeter=0;entryX=0.49;entryY=0.848;entryDx=0;entryDy=0;entryPerimeter=0;" edge="1" parent="1" source="7BKBs26bFtrJ278Ogw7V-13" target="7BKBs26bFtrJ278Ogw7V-13">
          <mxGeometry relative="1" as="geometry" />
        </mxCell>
        <mxCell id="7BKBs26bFtrJ278Ogw7V-41" value="" style="rounded=1;arcSize=10;dashed=1;fillColor=none;gradientColor=none;dashPattern=1 1;strokeWidth=2;" vertex="1" parent="1">
          <mxGeometry x="98.5" y="1030" width="481.5" height="300" as="geometry" />
        </mxCell>
      </root>
    </mxGraphModel>
  </diagram>
</mxfile>
